<svg width="1632" height="401" viewBox="0 0 1632 401" fill="none" xmlns="http://www.w3.org/2000/svg">
<path d="M203.907 113.819C160.787 96.7257 98.1321 104.549 69.3708 143.981V0H0V394.341H69.3708V235.687C69.3708 225.218 71.1797 215.881 74.7975 207.628C85.7186 182.192 111.36 169.033 138.742 169.326C178.831 169.146 199.927 195.938 199.678 235.687V394.341H269.049V218.797C269.049 202.314 266.63 187.03 261.814 172.944C252.159 144.501 231.65 124.988 203.884 113.819H203.907Z" fill="black"/>
<path d="M527.969 113.817C483.561 96.8143 417.152 104.276 388.3 145.788L382.874 111.398H322.547V394.34H391.918L393.139 236.883C393.139 226.438 394.948 216.987 398.566 208.53C405.53 191.889 419.73 179.951 436.281 173.847C484.397 158.133 528.647 182.665 527.087 237.494V394.34H595.87V222.413C595.87 205.116 593.247 189.244 588.024 174.751C577.487 145.607 557.092 124.941 527.992 113.817H527.969Z" fill="black"/>
<path d="M1206.17 147.008C1161.55 89.1038 1058.29 93.3319 1009.49 146.104C955.974 201.114 956.607 303.379 1009.49 358.457C1058.42 412.314 1160.6 416.7 1206.17 358.774L1211.59 394.362H1273.73V111.42H1210.37L1206.14 147.008H1206.17ZM1154.88 332.501C1096.03 357.078 1037.24 315.227 1037.85 251.964C1036.94 205.138 1072.6 165.277 1120.49 166.294C1143.87 166.136 1165.94 174.931 1181.72 191.03C1221.38 231.615 1209.01 310.592 1154.88 332.501Z" fill="black"/>
<path d="M1592.07 146.106C1543.68 93.1985 1440.78 89.4 1396.6 147.01V0H1327.22V394.341H1386.94L1394.18 358.143C1439.17 417.336 1542.5 411.819 1591.75 358.437C1645.25 303.517 1645.41 201.003 1592.05 146.083L1592.07 146.106ZM1515.15 332.503C1457.15 357.216 1395.98 314.754 1396.6 251.966C1396.26 217.915 1415.5 186.058 1446.97 172.944C1477.43 159.717 1518.81 166.274 1541.37 191.032C1580.22 231.481 1568.46 310.187 1515.15 332.503Z" fill="black"/>
<path d="M922.622 220.811H649.322V281.111H922.622V220.811Z" fill="black"/>
</svg>
